<?xml version="1.0" standalone="no"?>
<!DOCTYPE svg PUBLIC "-//W3C//DTD SVG 20010904//EN"
 "http://www.w3.org/TR/2001/REC-SVG-20010904/DTD/svg10.dtd">
<svg version="1.0" xmlns="http://www.w3.org/2000/svg"
 width="512.000000pt" height="512.000000pt" viewBox="0 0 512.000000 512.000000"
 preserveAspectRatio="xMidYMid meet">
<metadata>
Created by potrace 1.11, written by Peter Selinger 2001-2013
</metadata>
<g transform="translate(0.000000,512.000000) scale(0.100000,-0.100000)"
fill="#000000" stroke="none">
<path d="M3033 5003 c-38 -7 -65 -52 -60 -98 2 -22 8 -47 11 -56 11 -26 50
-42 86 -34 63 14 79 126 25 172 -14 13 -29 22 -33 22 -4 -1 -17 -4 -29 -6z"/>
<path d="M705 4955 c-29 -28 -26 35 -26 -598 1 -241 5 -395 11 -407 10 -18 26
-27 70 -35 31 -6 70 36 71 77 0 18 1 237 2 486 l0 452 -23 25 c-31 33 -73 33
-105 0z"/>
<path d="M4435 4955 l-25 -24 0 -475 c0 -491 2 -519 41 -531 45 -14 61 -13 87
10 l27 23 1 487 0 486 -22 25 c-31 32 -77 32 -109 -1z"/>
<path d="M3824 4942 c-11 -1 -60 -43 -109 -92 -79 -80 -89 -93 -89 -126 0 -62
57 -90 124 -60 14 6 16 -16 15 -191 0 -109 3 -206 7 -215 26 -55 92 -66 127
-22 20 26 21 38 21 335 0 209 -4 316 -11 333 -12 27 -51 44 -85 38z"/>
<path d="M2212 4873 c-17 -25 -19 -45 -18 -173 1 -119 4 -151 18 -172 20 -30
58 -40 90 -24 41 21 48 51 45 209 -2 143 -3 150 -26 168 -35 29 -85 25 -109
-8z"/>
<path d="M1387 4818 c-98 -21 -165 -80 -194 -171 -16 -50 -20 -87 -18 -197 1
-74 5 -151 9 -170 19 -84 98 -164 187 -188 122 -33 261 38 310 158 10 26 14
81 14 210 0 173 0 175 -28 222 -37 63 -68 93 -121 116 -53 24 -109 31 -159 20z
m124 -177 c20 -20 29 -40 30 -63 0 -59 1 -232 0 -255 -1 -13 -13 -36 -28 -53
-46 -49 -129 -43 -167 12 -21 30 -22 300 -2 337 32 58 119 69 167 22z"/>
<path d="M2988 4726 c-45 -12 -110 -53 -135 -86 -6 -8 -22 -35 -34 -60 -21
-41 -23 -60 -24 -200 -2 -170 10 -231 56 -287 130 -161 388 -114 448 80 14 47
17 88 16 205 -2 141 -12 204 -40 240 -72 95 -182 136 -287 108z m143 -177 c31
-33 30 -29 30 -214 0 -126 0 -126 -32 -156 -44 -41 -108 -41 -150 0 l-29 29 0
152 c0 192 13 218 113 219 31 1 45 -5 68 -30z"/>
<path d="M194 4438 c-33 -18 -44 -40 -44 -90 0 -85 67 -125 125 -75 23 19 27
30 27 76 -1 39 -6 59 -19 72 -23 23 -63 30 -89 17z"/>
<path d="M4915 4438 c-34 -19 -44 -41 -45 -91 0 -38 5 -53 25 -72 49 -50 125
-14 129 60 5 82 -52 135 -109 103z"/>
<path d="M2235 4230 c-11 -5 -57 -46 -102 -93 -66 -67 -83 -90 -83 -113 0 -63
65 -103 115 -70 l25 16 0 -200 c0 -227 6 -253 60 -264 18 -3 40 -2 49 4 46 24
46 26 46 359 l1 316 -27 28 c-28 28 -49 32 -84 17z"/>
<path d="M176 4109 l-26 -20 0 -262 c1 -280 2 -287 51 -306 33 -12 85 10 94
40 4 13 8 135 8 272 0 245 -1 248 -23 272 -29 31 -68 32 -104 4z"/>
<path d="M4895 4105 l-25 -24 0 -253 c0 -217 2 -257 16 -276 21 -31 53 -41 86
-30 52 18 54 32 52 298 -2 294 1 265 -26 290 -30 27 -73 26 -103 -5z"/>
<path d="M3751 4008 c-60 -23 -111 -70 -143 -131 -20 -38 -22 -59 -24 -210 -2
-150 0 -174 18 -217 74 -177 300 -218 438 -80 24 24 51 86 59 138 9 60 7 276
-4 322 -9 39 -44 99 -75 128 -67 62 -179 83 -269 50z m170 -169 l29 -31 0
-153 0 -153 -31 -31 c-25 -25 -39 -31 -76 -31 -36 0 -50 6 -74 29 -17 17 -30
41 -30 58 -5 110 -3 253 4 276 14 42 53 67 104 67 37 0 50 -5 74 -31z"/>
<path d="M1422 3889 c-13 -5 -62 -48 -108 -95 -72 -73 -84 -90 -84 -119 0 -63
76 -99 122 -58 17 16 18 9 18 -196 0 -212 0 -212 25 -236 32 -33 74 -33 105 0
21 23 23 34 24 132 1 60 5 114 9 121 5 6 4 12 -1 12 -5 0 -8 82 -8 186 1 121
-3 196 -10 214 -14 32 -59 51 -92 39z"/>
<path d="M3002 3870 c-47 -44 -39 -144 12 -168 54 -25 107 12 112 79 7 89 -67
142 -124 89z"/>
<path d="M701 3704 c-30 -38 -29 -113 2 -141 34 -33 76 -34 107 -3 30 30 28
121 -2 150 -32 29 -81 27 -107 -6z"/>
<path d="M4440 3712 c-34 -27 -39 -108 -10 -144 26 -33 76 -38 110 -10 33 26
35 114 4 147 -28 30 -72 33 -104 7z"/>
<path d="M3022 3579 c-44 -17 -51 -45 -49 -191 2 -126 4 -139 24 -159 30 -30
81 -28 110 5 20 23 21 35 19 165 -1 118 -4 142 -19 159 -21 23 -55 32 -85 21z"/>
<path d="M730 3378 c-45 -17 -49 -34 -50 -196 0 -149 1 -154 25 -177 30 -31
66 -32 100 -2 27 23 27 23 28 174 0 123 -3 156 -16 176 -18 28 -53 38 -87 25z"/>
<path d="M201 3358 c-37 -13 -50 -38 -51 -91 0 -38 5 -53 25 -72 53 -54 125
-16 127 67 0 25 -4 54 -11 65 -14 27 -59 43 -90 31z"/>
<path d="M4924 3359 c-57 -20 -74 -120 -29 -164 41 -42 103 -28 123 26 11 30
6 97 -8 115 -17 19 -63 32 -86 23z"/>
<path d="M2425 3204 c-77 -27 -76 -26 -143 -77 -29 -22 -67 -60 -86 -86 -46
-62 -408 -685 -428 -737 -23 -58 -19 -157 10 -215 12 -25 47 -73 77 -107 31
-33 52 -63 48 -65 -11 -6 -106 -37 -129 -41 -10 -2 -32 -10 -49 -16 -37 -14
-330 -107 -401 -126 -58 -16 -17 -27 -534 141 -329 107 -334 108 -409 101
-122 -13 -226 -83 -281 -192 -22 -43 -25 -62 -25 -149 0 -90 3 -106 28 -153
24 -49 58 -88 114 -133 20 -17 119 -55 258 -99 39 -13 95 -31 125 -41 52 -16
533 -170 592 -189 60 -19 151 -3 392 69 131 39 240 71 242 71 2 0 3 -235 4
-522 0 -521 0 -522 22 -545 27 -29 76 -30 106 -3 17 16 22 33 23 73 0 29 0
296 0 595 l0 543 -23 20 c-18 16 -32 18 -68 14 -25 -3 -54 -7 -65 -8 -11 -1
-22 -5 -25 -8 -12 -14 -499 -153 -533 -152 -21 1 -72 13 -115 27 -63 21 -603
195 -785 253 -63 20 -103 54 -127 109 -50 109 4 226 123 264 48 15 64 11 342
-79 502 -164 567 -183 593 -176 25 6 113 33 547 170 94 30 187 58 208 64 47
12 77 44 77 83 0 29 -11 42 -139 180 -75 80 -83 94 -85 142 0 36 16 70 121
252 323 556 318 549 411 592 59 27 154 35 212 18 58 -16 136 -72 168 -118 16
-24 88 -146 161 -273 72 -126 136 -237 141 -245 61 -95 104 -188 103 -223 -2
-50 -13 -65 -125 -178 -106 -105 -121 -128 -112 -163 12 -48 0 -43 349 -151
83 -26 204 -64 270 -85 66 -21 145 -46 176 -56 l57 -17 113 35 c63 20 213 68
334 108 420 138 435 141 506 104 68 -34 102 -92 103 -170 0 -83 -51 -152 -131
-181 -210 -73 -885 -285 -912 -285 -35 -1 -104 14 -146 31 -16 7 -115 36 -185
56 -8 2 -76 22 -150 44 -180 53 -174 52 -211 22 l-24 -19 -1 -586 c-1 -550 0
-588 17 -616 15 -24 26 -30 53 -30 18 0 44 9 57 19 l24 19 2 522 c1 287 4 524
6 526 3 3 53 -10 205 -57 73 -22 115 -34 237 -69 92 -26 152 -24 255 10 36 11
126 40 200 65 74 24 243 78 375 121 291 93 329 110 389 174 62 66 88 127 92
216 3 81 -9 128 -50 198 -51 88 -127 138 -236 158 -79 15 -117 7 -390 -82
-118 -39 -222 -72 -230 -74 -8 -2 -22 -6 -30 -9 -8 -4 -73 -25 -143 -48 l-128
-41 -162 51 c-89 29 -169 54 -177 56 -8 2 -67 20 -130 40 -63 20 -126 40 -140
44 -24 7 -24 9 38 73 82 85 113 156 107 246 -3 69 -21 111 -108 257 -29 50
-67 115 -84 146 -17 32 -38 68 -46 80 -8 13 -26 43 -39 65 -94 167 -153 263
-176 289 -133 147 -323 200 -497 139z"/>
<path d="M4439 3131 c-23 -18 -24 -25 -27 -174 -3 -149 -3 -155 20 -181 31
-37 83 -39 113 -4 20 23 21 35 21 177 -1 146 -2 153 -25 177 -28 29 -70 31
-102 5z"/>
<path d="M3800 3052 c-16 -13 -24 -32 -27 -68 -4 -43 -2 -55 18 -78 30 -35 81
-38 112 -8 23 24 31 93 14 127 -24 47 -78 59 -117 27z"/>
<path d="M1421 2928 c-37 -13 -50 -38 -51 -91 0 -58 31 -97 79 -97 86 0 106
159 24 188 -17 5 -38 6 -52 0z"/>
<path d="M3824 2719 c-47 -17 -54 -43 -54 -202 0 -144 1 -149 25 -172 30 -31
73 -32 106 -4 23 20 24 25 25 172 0 166 -5 188 -54 205 -15 5 -37 6 -48 1z"/>
<path d="M1394 2565 c-23 -23 -24 -29 -24 -178 0 -172 6 -191 66 -203 24 -4
37 0 58 18 28 24 28 24 30 163 3 183 -6 211 -74 220 -24 3 -38 -2 -56 -20z"/>
<path d="M730 2572 c-53 -16 -69 -124 -25 -167 13 -14 36 -25 50 -25 14 0 37
11 50 25 33 32 36 114 5 145 -11 11 -23 20 -27 21 -5 0 -15 2 -23 3 -8 2 -22
1 -30 -2z"/>
<path d="M2560 2550 c-14 -4 -44 -18 -65 -32 -22 -13 -47 -27 -55 -31 -8 -4
-33 -18 -55 -32 -22 -14 -46 -28 -53 -31 -73 -36 -240 -146 -251 -165 -19 -33
-8 -74 25 -96 21 -13 33 -15 63 -7 43 12 32 25 97 -126 69 -160 153 -228 294
-235 77 -5 147 16 204 60 35 27 116 136 120 161 1 7 6 18 12 25 5 8 21 38 34
67 24 53 30 57 65 43 27 -11 58 5 77 37 32 60 15 80 -155 180 -353 208 -322
192 -357 182z m165 -249 c22 -14 52 -31 68 -38 15 -7 27 -16 27 -21 0 -14
-110 -225 -128 -246 -57 -64 -175 -64 -234 1 -25 27 -120 245 -111 254 5 4 58
37 118 72 l110 65 55 -31 c30 -17 73 -42 95 -56z"/>
<path d="M2555 1519 c-46 -23 -46 -13 -45 -721 0 -736 -2 -709 59 -723 35 -7
66 7 82 37 13 25 17 1326 4 1367 -5 18 -61 54 -77 50 -2 0 -12 -5 -23 -10z"/>
</g>
</svg>
